<?xml version="1.0" standalone="no"?>
<!DOCTYPE svg PUBLIC "-//W3C//DTD SVG 20010904//EN"
 "http://www.w3.org/TR/2001/REC-SVG-20010904/DTD/svg10.dtd">
<svg version="1.0" xmlns="http://www.w3.org/2000/svg"
 width="409.000000pt" height="409.000000pt" viewBox="0 0 409.000000 409.000000"
 preserveAspectRatio="xMidYMid meet">
<g  transform="translate(0.000000,409.000000) scale(0.100000,-0.100000)"
fill="#000000" stroke="none">
<path d="M1798 4030 c-382 -59 -684 -184 -970 -402 -409 -311 -689 -792 -763
-1311 -19 -132 -19 -422 0 -554 74 -519 354 -1000 763 -1311 321 -244 710
-391 1091 -410 387 -20 707 45 1033 208 519 261 893 729 1043 1305 76 294 76
676 -1 973 -229 885 -1000 1498 -1909 1517 -130 3 -198 -1 -287 -15z m480 -10
c666 -70 1262 -492 1562 -1105 140 -286 201 -552 201 -875 0 -323 -61 -588
-201 -875 -293 -603 -880 -1024 -1535 -1101 -34 -4 -31 -1 20 14 383 119 642
410 710 797 105 604 -370 1165 -986 1165 -395 0 -762 243 -916 605 -59 138
-77 230 -77 395 0 164 18 256 76 395 123 289 392 514 693 578 82 18 316 21
453 7z m-94 -2714 c60 -29 103 -73 138 -139 19 -34 23 -58 23 -127 0 -69 -4
-93 -23 -127 -33 -63 -74 -106 -134 -138 -47 -26 -63 -30 -138 -29 -93 0 -137
16 -203 73 -76 67 -115 198 -88 298 24 90 116 185 205 213 55 17 160 6 220
-24z"/>
<path d="M1964 3330 c-89 -28 -181 -123 -205 -213 -27 -100 12 -231 88 -298
66 -57 110 -73 203 -73 75 -1 91 3 138 29 60 32 101 75 134 138 19 34 23 58
23 127 0 69 -4 93 -23 127 -56 107 -140 162 -255 169 -40 2 -86 -1 -103 -6z"/>
</g>
</svg>